<svg width="100" height="100" viewBox="0 0 100 100" fill="none" xmlns="http://www.w3.org/2000/svg">
<g clip-path="url(#clip0_387_434)">
<path d="M50 100C77.6142 100 100 77.6142 100 50C100 22.3858 77.6142 0 50 0C22.3858 0 0 22.3858 0 50C0 77.6142 22.3858 100 50 100Z" fill="#805AD5"/>
<path d="M46.0056 53.9793V46.7456H17.0703V53.9793H46.0056Z" fill="white"/>
<path d="M46.0056 53.9793V46.7456H17.0703V53.9793H46.0056Z" fill="white"/>
<path d="M45.9972 43.1297C43.5197 43.1297 41.1145 42.8182 38.8198 42.2314C38.7997 42.2274 38.7815 42.2214 38.7635 42.2174C36.3704 41.6005 34.0957 40.6862 31.9858 39.5168V39.5148C31.8331 39.4304 31.6804 39.3439 31.5297 39.2575C29.8599 38.2909 28.2967 37.1638 26.8619 35.8958C26.5264 35.6025 26.1988 35.2991 25.8772 34.9855C25.3267 34.4571 24.8002 33.9045 24.2959 33.3298C23.0279 31.8951 21.9007 30.3318 20.9342 28.6621C19.6381 26.4235 18.6355 23.9962 17.9744 21.4282H25.5316C25.6402 21.7357 25.7547 22.0391 25.8772 22.3385C26.8237 24.6774 28.1659 26.8134 29.8217 28.6621C30.3582 29.2628 30.9289 29.8335 31.5297 30.3699C32.7354 31.4491 34.0635 32.3955 35.4902 33.1851C36.5311 33.7638 37.6262 34.2582 38.7635 34.6601C41.0261 35.4598 43.4614 35.8958 45.9972 35.8958V43.1297Z" fill="white"/>
<path d="M45.9972 43.1297C43.5197 43.1297 41.1145 42.8182 38.8198 42.2314C38.7997 42.2274 38.7815 42.2214 38.7635 42.2174C36.3704 41.6005 34.0957 40.6862 31.9858 39.5168V39.5148C31.8331 39.4304 31.6804 39.3439 31.5297 39.2575C29.8599 38.2909 28.2967 37.1638 26.8619 35.8958C26.5264 35.6025 26.1988 35.2991 25.8772 34.9855C25.3267 34.4571 24.8002 33.9045 24.2959 33.3298C23.0279 31.8951 21.9007 30.3318 20.9342 28.6621C19.6381 26.4235 18.6355 23.9962 17.9744 21.4282H25.5316C25.6402 21.7357 25.7547 22.0391 25.8772 22.3385C26.8237 24.6774 28.1659 26.8134 29.8217 28.6621C30.3582 29.2628 30.9289 29.8335 31.5297 30.3699C32.7354 31.4491 34.0635 32.3955 35.4902 33.1851C36.5311 33.7638 37.6262 34.2582 38.7635 34.6601C41.0261 35.4598 43.4614 35.8958 45.9972 35.8958V43.1297Z" fill="white"/>
<path d="M46.0054 57.5967C43.5279 57.5967 41.1226 57.9081 38.8279 58.4948C38.8077 58.4988 38.7897 58.5048 38.7716 58.5088C36.3784 59.1258 34.1037 60.04 31.9939 61.2095V61.2115C31.8411 61.296 31.6884 61.3823 31.5377 61.4687C29.868 62.4353 28.3047 63.5625 26.87 64.8304C26.5344 65.1238 26.2069 65.4272 25.8854 65.7407C25.3349 66.2691 24.8083 66.8217 24.304 67.3964C23.036 68.8311 21.9087 70.3944 20.9423 72.0643C19.6463 74.3027 18.6436 76.73 17.9824 79.298H25.5397C25.6483 78.9905 25.7629 78.6871 25.8854 78.3878C26.8317 76.0488 28.174 73.9128 29.8299 72.0643C30.3663 71.4634 30.937 70.8927 31.5377 70.3562C32.7434 69.2772 34.0716 68.3308 35.4983 67.5411C36.5391 66.9624 37.6343 66.4681 38.7716 66.0663C41.0341 65.2664 43.4696 64.8304 46.0054 64.8304V57.5967Z" fill="white"/>
<path d="M46.0054 57.5967C43.5279 57.5967 41.1226 57.9081 38.8279 58.4948C38.8077 58.4988 38.7897 58.5048 38.7716 58.5088C36.3784 59.1258 34.1037 60.04 31.9939 61.2095V61.2115C31.8411 61.296 31.6884 61.3823 31.5377 61.4687C29.868 62.4353 28.3047 63.5625 26.87 64.8304C26.5344 65.1238 26.2069 65.4272 25.8854 65.7407C25.3349 66.2691 24.8083 66.8217 24.304 67.3964C23.036 68.8311 21.9087 70.3944 20.9423 72.0643C19.6463 74.3027 18.6436 76.73 17.9824 79.298H25.5397C25.6483 78.9905 25.7629 78.6871 25.8854 78.3878C26.8317 76.0488 28.174 73.9128 29.8299 72.0643C30.3663 71.4634 30.937 70.8927 31.5377 70.3562C32.7434 69.2772 34.0716 68.3308 35.4983 67.5411C36.5391 66.9624 37.6343 66.4681 38.7716 66.0663C41.0341 65.2664 43.4696 64.8304 46.0054 64.8304V57.5967Z" fill="white"/>
<path d="M62.8755 23.6841C69.7884 23.6841 75.5492 26.0888 80.1578 30.8984C84.8144 35.7079 87.1426 41.6365 87.1426 48.6841C87.1426 55.7317 84.8144 61.6602 80.1578 66.4698C75.5492 71.2794 69.7884 73.6841 62.8755 73.6841H42.8569V23.6841H62.8755ZM62.8755 64.2555C67.2441 64.2555 70.7965 62.8269 73.5329 59.9698C76.2692 57.0651 77.6374 53.3031 77.6374 48.6841C77.6374 44.0651 76.2692 40.3269 73.5329 37.4698C70.7965 34.5651 67.2441 33.1127 62.8755 33.1127H52.7942V64.2555H62.8755Z" fill="white"/>
</g>
<defs>
<clipPath id="clip0_387_434">
<rect width="100" height="100" fill="white"/>
</clipPath>
</defs>
</svg>
