<svg width="100" height="100" viewBox="0 0 100 100" fill="none" xmlns="http://www.w3.org/2000/svg">
<path d="M50.3637 93.3944C73.794 93.3944 92.7879 74.4004 92.7879 50.9701C92.7879 27.5399 73.794 8.5459 50.3637 8.5459C26.9334 8.5459 7.93945 27.5399 7.93945 50.9701C7.93945 74.4004 26.9334 93.3944 50.3637 93.3944Z" fill="#805AD5"/>
<path d="M46.9745 54.3467V48.209H22.4233V54.3467H46.9745Z" fill="white"/>
<path d="M46.9745 54.3467V48.209H22.4233V54.3467H46.9745Z" fill="white"/>
<path d="M46.9674 45.1409C44.8652 45.1409 42.8245 44.8766 40.8775 44.3787C40.8604 44.3753 40.845 44.3702 40.8297 44.3668C38.7992 43.8434 36.8691 43.0677 35.0789 42.0754V42.0737C34.9493 42.0021 34.8198 41.9288 34.6919 41.8554C33.2752 41.0353 31.9487 40.0789 30.7314 39.0031C30.4467 38.7542 30.1687 38.4968 29.8959 38.2307C29.4287 37.7823 28.9821 37.3135 28.5542 36.8258C27.4783 35.6085 26.5218 34.2821 25.7018 32.8654C24.6021 30.966 23.7514 28.9064 23.1904 26.7275H29.6027C29.6948 26.9884 29.7919 27.2458 29.8959 27.4999C30.6989 29.4844 31.8378 31.2968 33.2427 32.8654C33.6979 33.3751 34.1822 33.8593 34.6919 34.3144C35.7149 35.2301 36.8418 36.0331 38.0524 36.7031C38.9355 37.1941 39.8647 37.6136 40.8297 37.9546C42.7495 38.6331 44.8158 39.0031 46.9674 39.0031V45.1409Z" fill="white"/>
<path d="M46.9674 45.1409C44.8652 45.1409 42.8245 44.8766 40.8775 44.3787C40.8604 44.3753 40.845 44.3702 40.8297 44.3668C38.7992 43.8434 36.8691 43.0677 35.0789 42.0754V42.0737C34.9493 42.0021 34.8198 41.9288 34.6919 41.8554C33.2752 41.0353 31.9487 40.0789 30.7314 39.0031C30.4467 38.7542 30.1687 38.4968 29.8959 38.2307C29.4287 37.7823 28.9821 37.3135 28.5542 36.8258C27.4783 35.6085 26.5218 34.2821 25.7018 32.8654C24.6021 30.966 23.7514 28.9064 23.1904 26.7275H29.6027C29.6948 26.9884 29.7919 27.2458 29.8959 27.4999C30.6989 29.4844 31.8378 31.2968 33.2427 32.8654C33.6979 33.3751 34.1822 33.8593 34.6919 34.3144C35.7149 35.2301 36.8418 36.0331 38.0524 36.7031C38.9355 37.1941 39.8647 37.6136 40.8297 37.9546C42.7495 38.6331 44.8158 39.0031 46.9674 39.0031V45.1409Z" fill="white"/>
<path d="M46.9744 57.416C44.8722 57.416 42.8313 57.6803 40.8843 58.1781C40.8672 58.1815 40.8519 58.1866 40.8365 58.19C38.806 58.7135 36.8759 59.4891 35.0858 60.4815V60.4832C34.9562 60.5548 34.8266 60.628 34.6987 60.7013C33.282 61.5215 31.9556 62.478 30.7382 63.5537C30.4535 63.8027 30.1756 64.0601 29.9028 64.3261C29.4357 64.7744 28.9889 65.2433 28.561 65.7309C27.4851 66.9483 26.5287 68.2747 25.7087 69.6915C24.609 71.5908 23.7582 73.6503 23.1973 75.8292H29.6095C29.7016 75.5684 29.7988 75.3109 29.9028 75.057C30.7058 73.0724 31.8447 71.26 33.2496 69.6915C33.7048 69.1817 34.189 68.6975 34.6987 68.2423C35.7218 67.3268 36.8487 66.5238 38.0592 65.8537C38.9424 65.3627 39.8716 64.9433 40.8365 64.6023C42.7563 63.9237 44.8227 63.5537 46.9744 63.5537V57.416Z" fill="white"/>
<path d="M46.9744 57.416C44.8722 57.416 42.8313 57.6803 40.8843 58.1781C40.8672 58.1815 40.8519 58.1866 40.8365 58.19C38.806 58.7135 36.8759 59.4891 35.0858 60.4815V60.4832C34.9562 60.5548 34.8266 60.628 34.6987 60.7013C33.282 61.5215 31.9556 62.478 30.7382 63.5537C30.4535 63.8027 30.1756 64.0601 29.9028 64.3261C29.4357 64.7744 28.9889 65.2433 28.561 65.7309C27.4851 66.9483 26.5287 68.2747 25.7087 69.6915C24.609 71.5908 23.7582 73.6503 23.1973 75.8292H29.6095C29.7016 75.5684 29.7988 75.3109 29.9028 75.057C30.7058 73.0724 31.8447 71.26 33.2496 69.6915C33.7048 69.1817 34.189 68.6975 34.6987 68.2423C35.7218 67.3268 36.8487 66.5238 38.0592 65.8537C38.9424 65.3627 39.8716 64.9433 40.8365 64.6023C42.7563 63.9237 44.8227 63.5537 46.9744 63.5537V57.416Z" fill="white"/>
<path d="M61.2884 28.6416C67.1539 28.6416 72.0419 30.682 75.9522 34.7628C79.9032 38.8437 81.8787 43.874 81.8787 49.8537C81.8787 55.8335 79.9032 60.8638 75.9522 64.9446C72.0419 69.0255 67.1539 71.0658 61.2884 71.0658H44.303V28.6416H61.2884ZM61.2884 63.0658C64.9951 63.0658 68.0093 61.8537 70.3311 59.4295C72.6528 56.9649 73.8136 53.7729 73.8136 49.8537C73.8136 45.9346 72.6528 42.7628 70.3311 40.3386C68.0093 37.874 64.9951 36.6416 61.2884 36.6416H52.7346V63.0658H61.2884Z" fill="white"/>
</svg>
