<svg width="300" height="60" viewBox="0 0 373 99" fill="none" xmlns="http://www.w3.org/2000/svg">
<circle cx="35" cy="47" r="35" fill="black"/>
<path d="M32.2039 49.7863L32.2039 44.7227L11.9492 44.7227L11.9492 49.7863L32.2039 49.7863Z" fill="white"/>
<path d="M32.2039 49.7863L32.2039 44.7227L11.9492 44.7227L11.9492 49.7863L32.2039 49.7863Z" fill="white"/>
<path d="M32.1982 42.191C30.4639 42.191 28.7803 41.973 27.174 41.5622C27.1599 41.5594 27.1472 41.5552 27.1346 41.5524C25.4594 41.1206 23.8671 40.4806 22.3902 39.662C22.3902 39.6605 22.3902 39.6606 22.3902 39.6606C22.2833 39.6015 22.1764 39.541 22.0709 39.4805C20.9021 38.8039 19.8078 38.0149 18.8035 37.1273C18.5686 36.922 18.3393 36.7096 18.1142 36.4901C17.7288 36.1202 17.3603 35.7334 17.0073 35.3311C16.1197 34.3268 15.3306 33.2325 14.6541 32.0637C13.7468 30.4967 13.045 28.7976 12.5822 27L17.8723 27C17.9483 27.2152 18.0284 27.4276 18.1142 27.6372C18.7767 29.2744 19.7163 30.7696 20.8753 32.0637C21.2509 32.4842 21.6504 32.8837 22.0709 33.2592C22.9149 34.0146 23.8446 34.6771 24.8433 35.2298C25.5719 35.6349 26.3385 35.981 27.1346 36.2623C28.7184 36.8221 30.4231 37.1273 32.1982 37.1273L32.1982 42.191Z" fill="white"/>
<path d="M32.1982 42.191C30.4639 42.191 28.7803 41.973 27.174 41.5622C27.1599 41.5594 27.1472 41.5552 27.1346 41.5524C25.4594 41.1206 23.8671 40.4806 22.3902 39.662C22.3902 39.6605 22.3902 39.6606 22.3902 39.6606C22.2833 39.6015 22.1764 39.541 22.0709 39.4805C20.9021 38.8039 19.8078 38.0149 18.8035 37.1273C18.5686 36.922 18.3393 36.7096 18.1142 36.4901C17.7288 36.1202 17.3603 35.7334 17.0073 35.3311C16.1197 34.3268 15.3306 33.2325 14.6541 32.0637C13.7468 30.4967 13.045 28.7976 12.5822 27L17.8723 27C17.9483 27.2152 18.0284 27.4276 18.1142 27.6372C18.7767 29.2744 19.7163 30.7696 20.8753 32.0637C21.2509 32.4842 21.6504 32.8837 22.0709 33.2592C22.9149 34.0146 23.8446 34.6771 24.8433 35.2298C25.5719 35.6349 26.3385 35.981 27.1346 36.2623C28.7184 36.8221 30.4231 37.1273 32.1982 37.1273L32.1982 42.191Z" fill="white"/>
<path d="M32.2039 52.3184C30.4696 52.3184 28.7859 52.5364 27.1796 52.9471C27.1655 52.9499 27.1529 52.9541 27.1402 52.9569C25.465 53.3888 23.8727 54.0287 22.3958 54.8474C22.3958 54.8488 22.3958 54.8488 22.3958 54.8488C22.2889 54.9079 22.182 54.9683 22.0765 55.0288C20.9077 55.7054 19.8134 56.4945 18.8091 57.382C18.5742 57.5874 18.3449 57.7998 18.1199 58.0192C17.7345 58.3891 17.3659 58.7759 17.0129 59.1782C16.1253 60.1825 15.3362 61.2768 14.6597 62.4457C13.7525 64.0126 13.0506 65.7117 12.5878 67.5093L17.8779 67.5093C17.9539 67.2941 18.0341 67.0817 18.1199 66.8722C18.7823 65.2349 19.7219 63.7397 20.881 62.4457C21.2565 62.0251 21.656 61.6256 22.0765 61.2501C22.9205 60.4948 23.8502 59.8323 24.8489 59.2795C25.5775 58.8744 26.3441 58.5284 27.1402 58.2471C28.724 57.6872 30.4288 57.382 32.2039 57.382L32.2039 52.3184Z" fill="white"/>
<path d="M32.2039 52.3184C30.4696 52.3184 28.7859 52.5364 27.1796 52.9471C27.1655 52.9499 27.1529 52.9541 27.1402 52.9569C25.465 53.3888 23.8727 54.0287 22.3958 54.8474C22.3958 54.8488 22.3958 54.8488 22.3958 54.8488C22.2889 54.9079 22.182 54.9683 22.0765 55.0288C20.9077 55.7054 19.8134 56.4945 18.8091 57.382C18.5742 57.5874 18.3449 57.7998 18.1199 58.0192C17.7345 58.3891 17.3659 58.7759 17.0129 59.1782C16.1253 60.1825 15.3362 61.2768 14.6597 62.4457C13.7525 64.0126 13.0506 65.7117 12.5878 67.5093L17.8779 67.5093C17.9539 67.2941 18.0341 67.0817 18.1199 66.8722C18.7823 65.2349 19.7219 63.7397 20.881 62.4457C21.2565 62.0251 21.656 61.6256 22.0765 61.2501C22.9205 60.4948 23.8502 59.8323 24.8489 59.2795C25.5775 58.8744 26.3441 58.5284 27.1402 58.2471C28.724 57.6872 30.4288 57.382 32.2039 57.382L32.2039 52.3184Z" fill="white"/>
<path d="M44.013 28.5791C48.852 28.5791 52.8846 30.2624 56.1106 33.6291C59.3702 36.9958 61 41.1458 61 46.0791C61 51.0124 59.3702 55.1624 56.1106 58.5291C52.8846 61.8958 48.852 63.5791 44.013 63.5791H30V28.5791H44.013ZM44.013 56.9791C47.071 56.9791 49.5577 55.9791 51.4732 53.9791C53.3886 51.9458 54.3463 49.3124 54.3463 46.0791C54.3463 42.8458 53.3886 40.2291 51.4732 38.2291C49.5577 36.1958 47.071 35.1791 44.013 35.1791H36.9561V56.9791H44.013Z" fill="white"/>
<path d="M108.12 31H118.44V71H108.12V66.28C105.027 70.1733 100.68 72.12 95.08 72.12C89.7467 72.12 85.16 70.0933 81.32 66.04C77.5333 61.9333 75.64 56.92 75.64 51C75.64 45.08 77.5333 40.0933 81.32 36.04C85.16 31.9333 89.7467 29.88 95.08 29.88C100.68 29.88 105.027 31.8267 108.12 35.72V31ZM89.08 59.16C91.16 61.24 93.8 62.28 97 62.28C100.2 62.28 102.84 61.24 104.92 59.16C107.053 57.0267 108.12 54.3067 108.12 51C108.12 47.6933 107.053 45 104.92 42.92C102.84 40.7867 100.2 39.72 97 39.72C93.8 39.72 91.16 40.7867 89.08 42.92C87 45 85.96 47.6933 85.96 51C85.96 54.3067 87 57.0267 89.08 59.16ZM150.678 40.92H141.638V57.56C141.638 58.9467 141.985 59.96 142.678 60.6C143.371 61.24 144.385 61.6133 145.718 61.72C147.051 61.7733 148.705 61.7467 150.678 61.64V71C143.585 71.8 138.571 71.1333 135.638 69C132.758 66.8667 131.318 63.0533 131.318 57.56V40.92H124.358V31H131.318V22.92L141.638 19.8V31H150.678V40.92ZM187.104 31H197.424V71H187.104V66.28C184.011 70.1733 179.664 72.12 174.064 72.12C168.731 72.12 164.144 70.0933 160.304 66.04C156.518 61.9333 154.624 56.92 154.624 51C154.624 45.08 156.518 40.0933 160.304 36.04C164.144 31.9333 168.731 29.88 174.064 29.88C179.664 29.88 184.011 31.8267 187.104 35.72V31ZM168.064 59.16C170.144 61.24 172.784 62.28 175.984 62.28C179.184 62.28 181.824 61.24 183.904 59.16C186.038 57.0267 187.104 54.3067 187.104 51C187.104 47.6933 186.038 45 183.904 42.92C181.824 40.7867 179.184 39.72 175.984 39.72C172.784 39.72 170.144 40.7867 168.064 42.92C165.984 45 164.944 47.6933 164.944 51C164.944 54.3067 165.984 57.0267 168.064 59.16ZM226.383 72.12C220.836 72.12 216.169 70.8933 212.383 68.44C208.596 65.9333 205.929 62.5467 204.383 58.28L213.822 52.76C216.009 58.4667 220.303 61.32 226.703 61.32C229.796 61.32 232.063 60.76 233.503 59.64C234.943 58.52 235.663 57.1067 235.663 55.4C235.663 53.4267 234.783 51.9067 233.023 50.84C231.263 49.72 228.116 48.52 223.583 47.24C221.076 46.4933 218.943 45.7467 217.183 45C215.476 44.2533 213.743 43.2667 211.983 42.04C210.276 40.76 208.969 39.16 208.063 37.24C207.156 35.32 206.703 33.08 206.703 30.52C206.703 25.4533 208.489 21.4267 212.062 18.44C215.689 15.4 220.036 13.88 225.103 13.88C229.636 13.88 233.609 15 237.023 17.24C240.489 19.4267 243.183 22.4933 245.103 26.44L235.823 31.8C233.583 27 230.009 24.6 225.103 24.6C222.809 24.6 220.996 25.1333 219.663 26.2C218.383 27.2133 217.743 28.5467 217.743 30.2C217.743 31.96 218.463 33.4 219.903 34.52C221.396 35.5867 224.223 36.76 228.383 38.04C230.089 38.5733 231.369 39 232.223 39.32C233.129 39.5867 234.329 40.04 235.823 40.68C237.369 41.2667 238.543 41.8267 239.343 42.36C240.196 42.8933 241.156 43.6133 242.223 44.52C243.289 45.4267 244.089 46.36 244.623 47.32C245.209 48.28 245.689 49.4533 246.063 50.84C246.489 52.1733 246.703 53.64 246.703 55.24C246.703 60.4133 244.809 64.52 241.023 67.56C237.289 70.6 232.409 72.12 226.383 72.12ZM275.131 40.92H266.091V57.56C266.091 58.9467 266.438 59.96 267.131 60.6C267.825 61.24 268.838 61.6133 270.171 61.72C271.505 61.7733 273.158 61.7467 275.131 61.64V71C268.038 71.8 263.025 71.1333 260.091 69C257.211 66.8667 255.771 63.0533 255.771 57.56V40.92H248.811V31H255.771V22.92L266.091 19.8V31H275.131V40.92ZM289.878 55.24C291.264 60.2533 295.024 62.76 301.158 62.76C305.104 62.76 308.091 61.4267 310.118 58.76L318.438 63.56C314.491 69.2667 308.678 72.12 300.998 72.12C294.384 72.12 289.078 70.12 285.078 66.12C281.078 62.12 279.077 57.08 279.077 51C279.077 44.9733 281.051 39.96 284.998 35.96C288.944 31.9067 294.011 29.88 300.198 29.88C306.064 29.88 310.891 31.9067 314.678 35.96C318.518 40.0133 320.438 45.0267 320.438 51C320.438 52.3333 320.304 53.7467 320.038 55.24H289.878ZM289.718 47.24H310.118C309.531 44.52 308.304 42.4933 306.438 41.16C304.624 39.8267 302.544 39.16 300.198 39.16C297.424 39.16 295.131 39.88 293.318 41.32C291.504 42.7067 290.304 44.68 289.718 47.24ZM350.922 29.88C356.309 29.88 360.895 31.9333 364.682 36.04C368.522 40.0933 370.442 45.08 370.442 51C370.442 56.92 368.522 61.9333 364.682 66.04C360.895 70.0933 356.309 72.12 350.922 72.12C345.322 72.12 341.002 70.1733 337.962 66.28V87H327.642V31H337.962V35.72C341.002 31.8267 345.322 29.88 350.922 29.88ZM341.082 59.16C343.162 61.24 345.802 62.28 349.002 62.28C352.202 62.28 354.842 61.24 356.922 59.16C359.055 57.0267 360.122 54.3067 360.122 51C360.122 47.6933 359.055 45 356.922 42.92C354.842 40.7867 352.202 39.72 349.002 39.72C345.802 39.72 343.162 40.7867 341.082 42.92C339.002 45 337.962 47.6933 337.962 51C337.962 54.3067 339.002 57.0267 341.082 59.16Z" fill="black"/>
</svg>
