<svg width="300" height="60" viewBox="0 0 300 60" fill="none" xmlns="http://www.w3.org/2000/svg">
<path d="M51 56C66.464 56 79 43.464 79 28C79 12.536 66.464 0 51 0C35.536 0 23 12.536 23 28C23 43.464 35.536 56 51 56Z" fill="#805AD5"/>
<path d="M48.7631 30.2286V26.1777H32.5593V30.2286H48.7631Z" fill="white"/>
<path d="M48.7631 30.2286V26.1777H32.5593V30.2286H48.7631Z" fill="white"/>
<path d="M48.7585 24.1528C47.371 24.1528 46.0242 23.9784 44.7391 23.6498C44.7278 23.6475 44.7177 23.6442 44.7076 23.6419C43.3674 23.2965 42.0936 22.7845 40.9121 22.1296V22.1285C40.8266 22.0812 40.741 22.0328 40.6566 21.9844C39.7216 21.4431 38.8462 20.8119 38.0427 20.1018C37.8548 19.9376 37.6714 19.7677 37.4913 19.5921C37.183 19.2962 36.8882 18.9867 36.6058 18.6649C35.8957 17.8614 35.2644 16.986 34.7232 16.051C33.9974 14.7974 33.4359 13.4381 33.0657 12H37.2978C37.3586 12.1722 37.4226 12.3421 37.4913 12.5098C38.0213 13.8195 38.773 15.0157 39.7002 16.051C40.0006 16.3874 40.3202 16.707 40.6566 17.0074C41.3318 17.6117 42.0756 18.1417 42.8746 18.5838C43.4574 18.9079 44.0707 19.1848 44.7076 19.4098C45.9746 19.8577 47.3384 20.1018 48.7585 20.1018V24.1528Z" fill="white"/>
<path d="M48.7585 24.1528C47.371 24.1528 46.0242 23.9784 44.7391 23.6498C44.7278 23.6475 44.7177 23.6442 44.7076 23.6419C43.3674 23.2965 42.0936 22.7845 40.9121 22.1296V22.1285C40.8266 22.0812 40.741 22.0328 40.6566 21.9844C39.7216 21.4431 38.8462 20.8119 38.0427 20.1018C37.8548 19.9376 37.6714 19.7677 37.4913 19.5921C37.183 19.2962 36.8882 18.9867 36.6058 18.6649C35.8957 17.8614 35.2644 16.986 34.7232 16.051C33.9974 14.7974 33.4359 13.4381 33.0657 12H37.2978C37.3586 12.1722 37.4226 12.3421 37.4913 12.5098C38.0213 13.8195 38.773 15.0157 39.7002 16.051C40.0006 16.3874 40.3202 16.707 40.6566 17.0074C41.3318 17.6117 42.0756 18.1417 42.8746 18.5838C43.4574 18.9079 44.0707 19.1848 44.7076 19.4098C45.9746 19.8577 47.3384 20.1018 48.7585 20.1018V24.1528Z" fill="white"/>
<path d="M48.7629 32.2544C47.3755 32.2544 46.0285 32.4288 44.7435 32.7574C44.7322 32.7596 44.7221 32.763 44.712 32.7652C43.3718 33.1107 42.098 33.6226 40.9165 34.2776V34.2787C40.8309 34.326 40.7454 34.3743 40.661 34.4227C39.726 34.964 38.8505 35.5953 38.0471 36.3053C37.8592 36.4696 37.6757 36.6395 37.4957 36.815C37.1874 37.111 36.8925 37.4204 36.6101 37.7422C35.9001 38.5457 35.2688 39.4211 34.7276 40.3562C34.0018 41.6098 33.4403 42.969 33.0701 44.4071H37.3021C37.3629 44.235 37.4271 44.065 37.4957 43.8974C38.0257 42.5876 38.7773 41.3914 39.7046 40.3562C40.005 40.0198 40.3246 39.7002 40.661 39.3998C41.3362 38.7955 42.08 38.2655 42.8789 37.8233C43.4618 37.4992 44.0751 37.2224 44.712 36.9974C45.979 36.5494 47.3429 36.3053 48.7629 36.3053V32.2544Z" fill="white"/>
<path d="M48.7629 32.2544C47.3755 32.2544 46.0285 32.4288 44.7435 32.7574C44.7322 32.7596 44.7221 32.763 44.712 32.7652C43.3718 33.1107 42.098 33.6226 40.9165 34.2776V34.2787C40.8309 34.326 40.7454 34.3743 40.661 34.4227C39.726 34.964 38.8505 35.5953 38.0471 36.3053C37.8592 36.4696 37.6757 36.6395 37.4957 36.815C37.1874 37.111 36.8925 37.4204 36.6101 37.7422C35.9001 38.5457 35.2688 39.4211 34.7276 40.3562C34.0018 41.6098 33.4403 42.969 33.0701 44.4071H37.3021C37.3629 44.235 37.4271 44.065 37.4957 43.8974C38.0257 42.5876 38.7773 41.3914 39.7046 40.3562C40.005 40.0198 40.3246 39.7002 40.661 39.3998C41.3362 38.7955 42.08 38.2655 42.8789 37.8233C43.4618 37.4992 44.0751 37.2224 44.712 36.9974C45.979 36.5494 47.3429 36.3053 48.7629 36.3053V32.2544Z" fill="white"/>
<path d="M58.2104 13.2632C62.0816 13.2632 65.3077 14.6098 67.8885 17.3032C70.4962 19.9965 71.8 23.3165 71.8 27.2632C71.8 31.2098 70.4962 34.5298 67.8885 37.2232C65.3077 39.9165 62.0816 41.2632 58.2104 41.2632H47V13.2632H58.2104ZM58.2104 35.9832C60.6568 35.9832 62.6462 35.1832 64.1786 33.5832C65.7109 31.9565 66.477 29.8498 66.477 27.2632C66.477 24.6765 65.7109 22.5832 64.1786 20.9832C62.6462 19.3565 60.6568 18.5432 58.2104 18.5432H52.5649V35.9832H58.2104Z" fill="white"/>
<path d="M101.685 18.3758H107.939V42.6182H101.685V39.7576C99.8103 42.1172 97.1758 43.297 93.7818 43.297C90.5495 43.297 87.7697 42.0687 85.4424 39.6121C83.1475 37.1232 82 34.0848 82 30.497C82 26.9091 83.1475 23.8868 85.4424 21.4303C87.7697 18.9414 90.5495 17.697 93.7818 17.697C97.1758 17.697 99.8103 18.8768 101.685 21.2364V18.3758ZM90.1455 35.4424C91.4061 36.703 93.0061 37.3333 94.9455 37.3333C96.8848 37.3333 98.4848 36.703 99.7455 35.4424C101.038 34.1495 101.685 32.501 101.685 30.497C101.685 28.4929 101.038 26.8606 99.7455 25.6C98.4848 24.3071 96.8848 23.6606 94.9455 23.6606C93.0061 23.6606 91.4061 24.3071 90.1455 25.6C88.8849 26.8606 88.2545 28.4929 88.2545 30.497C88.2545 32.501 88.8849 34.1495 90.1455 35.4424ZM127.478 24.3879H121.999V34.4727C121.999 35.3132 122.209 35.9273 122.629 36.3152C123.049 36.703 123.664 36.9293 124.472 36.9939C125.279 37.0262 126.282 37.0101 127.478 36.9455V42.6182C123.179 43.103 120.14 42.699 118.362 41.4061C116.617 40.1132 115.744 37.802 115.744 34.4727V24.3879H111.526V18.3758H115.744V13.4788L121.999 11.5879V18.3758H127.478V24.3879ZM149.554 18.3758H155.808V42.6182H149.554V39.7576C147.679 42.1172 145.045 43.297 141.651 43.297C138.419 43.297 135.639 42.0687 133.312 39.6121C131.017 37.1232 129.869 34.0848 129.869 30.497C129.869 26.9091 131.017 23.8868 133.312 21.4303C135.639 18.9414 138.419 17.697 141.651 17.697C145.045 17.697 147.679 18.8768 149.554 21.2364V18.3758ZM138.015 35.4424C139.275 36.703 140.875 37.3333 142.815 37.3333C144.754 37.3333 146.354 36.703 147.615 35.4424C148.908 34.1495 149.554 32.501 149.554 30.497C149.554 28.4929 148.908 26.8606 147.615 25.6C146.354 24.3071 144.754 23.6606 142.815 23.6606C140.875 23.6606 139.275 24.3071 138.015 25.6C136.754 26.8606 136.124 28.4929 136.124 30.497C136.124 32.501 136.754 34.1495 138.015 35.4424ZM173.359 43.297C169.998 43.297 167.169 42.5535 164.875 41.0667C162.579 39.5475 160.963 37.495 160.026 34.9091L165.747 31.5636C167.072 35.0222 169.675 36.7515 173.553 36.7515C175.428 36.7515 176.802 36.4121 177.675 35.7333C178.547 35.0545 178.984 34.198 178.984 33.1636C178.984 31.9677 178.45 31.0465 177.384 30.4C176.317 29.7212 174.41 28.9939 171.662 28.2182C170.143 27.7656 168.85 27.3132 167.784 26.8606C166.749 26.4081 165.699 25.8101 164.632 25.0667C163.598 24.2909 162.805 23.3212 162.256 22.1576C161.707 20.9939 161.432 19.6364 161.432 18.0848C161.432 15.0141 162.515 12.5738 164.68 10.7636C166.878 8.92121 169.513 8 172.584 8C175.331 8 177.739 8.67879 179.808 10.0364C181.908 11.3616 183.541 13.2202 184.705 15.6121L179.081 18.8606C177.723 15.9515 175.557 14.497 172.584 14.497C171.193 14.497 170.095 14.8202 169.287 15.4667C168.511 16.0808 168.123 16.8889 168.123 17.8909C168.123 18.9576 168.559 19.8303 169.432 20.5091C170.337 21.1556 172.05 21.8667 174.572 22.6424C175.605 22.9656 176.381 23.2242 176.899 23.4182C177.448 23.5798 178.175 23.8545 179.081 24.2424C180.018 24.598 180.729 24.9374 181.214 25.2606C181.731 25.5838 182.313 26.0202 182.959 26.5697C183.605 27.1192 184.09 27.6848 184.414 28.2667C184.769 28.8485 185.06 29.5596 185.287 30.4C185.545 31.2081 185.675 32.097 185.675 33.0667C185.675 36.202 184.527 38.6909 182.232 40.5333C179.969 42.3758 177.012 43.297 173.359 43.297ZM202.904 24.3879H197.425V34.4727C197.425 35.3132 197.635 35.9273 198.055 36.3152C198.476 36.703 199.09 36.9293 199.898 36.9939C200.706 37.0262 201.708 37.0101 202.904 36.9455V42.6182C198.605 43.103 195.567 42.699 193.788 41.4061C192.043 40.1132 191.17 37.802 191.17 34.4727V24.3879H186.952V18.3758H191.17V13.4788L197.425 11.5879V18.3758H202.904V24.3879ZM211.841 33.0667C212.681 36.105 214.96 37.6242 218.678 37.6242C221.069 37.6242 222.879 36.8162 224.108 35.2L229.15 38.1091C226.758 41.5677 223.235 43.297 218.581 43.297C214.572 43.297 211.356 42.0849 208.932 39.6606C206.508 37.2364 205.295 34.1818 205.295 30.497C205.295 26.8444 206.492 23.8061 208.884 21.3818C211.275 18.9253 214.346 17.697 218.096 17.697C221.651 17.697 224.576 18.9253 226.872 21.3818C229.199 23.8384 230.362 26.8768 230.362 30.497C230.362 31.305 230.281 32.1616 230.12 33.0667H211.841ZM211.744 28.2182H224.108C223.752 26.5697 223.008 25.3414 221.878 24.5333C220.778 23.7253 219.518 23.3212 218.096 23.3212C216.415 23.3212 215.025 23.7576 213.926 24.6303C212.827 25.4707 212.099 26.6667 211.744 28.2182ZM248.838 17.697C252.102 17.697 254.882 18.9414 257.177 21.4303C259.504 23.8868 260.668 26.9091 260.668 30.497C260.668 34.0848 259.504 37.1232 257.177 39.6121C254.882 42.0687 252.102 43.297 248.838 43.297C245.444 43.297 242.825 42.1172 240.983 39.7576V52.3152H234.728V18.3758H240.983V21.2364C242.825 18.8768 245.444 17.697 248.838 17.697ZM242.874 35.4424C244.135 36.703 245.735 37.3333 247.674 37.3333C249.613 37.3333 251.213 36.703 252.474 35.4424C253.767 34.1495 254.413 32.501 254.413 30.497C254.413 28.4929 253.767 26.8606 252.474 25.6C251.213 24.3071 249.613 23.6606 247.674 23.6606C245.735 23.6606 244.135 24.3071 242.874 25.6C241.613 26.8606 240.983 28.4929 240.983 30.497C240.983 32.501 241.613 34.1495 242.874 35.4424Z" fill="#805AD5"/>
</svg>
