<svg width="300" height="60" viewBox="0 0 300 60" fill="none" xmlns="http://www.w3.org/2000/svg">
<path d="M58.1818 49.6972C69.897 49.6972 79.394 40.2002 79.394 28.4851C79.394 16.7699 69.897 7.27295 58.1818 7.27295C46.4667 7.27295 36.9697 16.7699 36.9697 28.4851C36.9697 40.2002 46.4667 49.6972 58.1818 49.6972Z" fill="#805AD5"/>
<path d="M56.4872 30.1733V27.1045H44.2117V30.1733H56.4872Z" fill="white"/>
<path d="M56.4872 30.1733V27.1045H44.2117V30.1733H56.4872Z" fill="white"/>
<path d="M56.4837 25.5704C55.4326 25.5704 54.4122 25.4383 53.4387 25.1893C53.4302 25.1876 53.4225 25.1851 53.4149 25.1834C52.3996 24.9217 51.4345 24.5338 50.5395 24.0377V24.0369C50.4747 24.001 50.4099 23.9644 50.3459 23.9277C49.6376 23.5176 48.9744 23.0395 48.3657 22.5015C48.2233 22.3771 48.0844 22.2484 47.9479 22.1153C47.7144 21.8912 47.491 21.6567 47.2771 21.4129C46.7392 20.8043 46.2609 20.141 45.8509 19.4327C45.301 18.483 44.8757 17.4532 44.5952 16.3638H47.8013C47.8474 16.4942 47.8959 16.6229 47.9479 16.75C48.3495 17.7422 48.9189 18.6484 49.6213 19.4327C49.849 19.6875 50.0911 19.9296 50.3459 20.1572C50.8575 20.615 51.4209 21.0166 52.0262 21.3515C52.4678 21.597 52.9324 21.8068 53.4149 21.9773C54.3747 22.3166 55.4079 22.5015 56.4837 22.5015V25.5704Z" fill="white"/>
<path d="M56.4837 25.5704C55.4326 25.5704 54.4122 25.4383 53.4387 25.1893C53.4302 25.1876 53.4225 25.1851 53.4149 25.1834C52.3996 24.9217 51.4345 24.5338 50.5395 24.0377V24.0369C50.4747 24.001 50.4099 23.9644 50.3459 23.9277C49.6376 23.5176 48.9744 23.0395 48.3657 22.5015C48.2233 22.3771 48.0844 22.2484 47.9479 22.1153C47.7144 21.8912 47.491 21.6567 47.2771 21.4129C46.7392 20.8043 46.2609 20.141 45.8509 19.4327C45.301 18.483 44.8757 17.4532 44.5952 16.3638H47.8013C47.8474 16.4942 47.8959 16.6229 47.9479 16.75C48.3495 17.7422 48.9189 18.6484 49.6213 19.4327C49.849 19.6875 50.0911 19.9296 50.3459 20.1572C50.8575 20.615 51.4209 21.0166 52.0262 21.3515C52.4678 21.597 52.9324 21.8068 53.4149 21.9773C54.3747 22.3166 55.4079 22.5015 56.4837 22.5015V25.5704Z" fill="white"/>
<path d="M56.4872 31.708C55.4361 31.708 54.4157 31.8401 53.4421 32.089C53.4336 32.0907 53.426 32.0933 53.4183 32.095C52.403 32.3567 51.438 32.7446 50.5429 33.2407V33.2416C50.4781 33.2774 50.4133 33.314 50.3494 33.3507C49.641 33.7607 48.9778 34.239 48.3691 34.7769C48.2268 34.9013 48.0878 35.0301 47.9514 35.163C47.7178 35.3872 47.4945 35.6216 47.2805 35.8655C46.7426 36.4741 46.2643 37.1373 45.8543 37.8458C45.3045 38.7954 44.8791 39.8252 44.5986 40.9146H47.8048C47.8508 40.7842 47.8994 40.6555 47.9514 40.5285C48.3529 39.5362 48.9223 38.63 49.6248 37.8458C49.8524 37.5909 50.0945 37.3487 50.3494 37.1212C50.8609 36.6634 51.4243 36.2619 52.0296 35.9269C52.4712 35.6813 52.9358 35.4716 53.4183 35.3012C54.3781 34.9618 55.4114 34.7769 56.4872 34.7769V31.708Z" fill="white"/>
<path d="M56.4872 31.708C55.4361 31.708 54.4157 31.8401 53.4421 32.089C53.4336 32.0907 53.426 32.0933 53.4183 32.095C52.403 32.3567 51.438 32.7446 50.5429 33.2407V33.2416C50.4781 33.2774 50.4133 33.314 50.3494 33.3507C49.641 33.7607 48.9778 34.239 48.3691 34.7769C48.2268 34.9013 48.0878 35.0301 47.9514 35.163C47.7178 35.3872 47.4945 35.6216 47.2805 35.8655C46.7426 36.4741 46.2643 37.1373 45.8543 37.8458C45.3045 38.7954 44.8791 39.8252 44.5986 40.9146H47.8048C47.8508 40.7842 47.8994 40.6555 47.9514 40.5285C48.3529 39.5362 48.9223 38.63 49.6248 37.8458C49.8524 37.5909 50.0945 37.3487 50.3494 37.1212C50.8609 36.6634 51.4243 36.2619 52.0296 35.9269C52.4712 35.6813 52.9358 35.4716 53.4183 35.3012C54.3781 34.9618 55.4114 34.7769 56.4872 34.7769V31.708Z" fill="white"/>
<path d="M63.6443 17.3208C66.5771 17.3208 69.0211 18.341 70.9762 20.3814C72.9517 22.4218 73.9395 24.937 73.9395 27.9269C73.9395 30.9167 72.9517 33.4319 70.9762 35.4723C69.0211 37.5127 66.5771 38.5329 63.6443 38.5329H55.1516V17.3208H63.6443ZM63.6443 34.5329C65.4977 34.5329 67.0048 33.9269 68.1657 32.7147C69.3265 31.4824 69.9069 29.8864 69.9069 27.9269C69.9069 25.9673 69.3265 24.3814 68.1657 23.1693C67.0048 21.937 65.4977 21.3208 63.6443 21.3208H59.3674V34.5329H63.6443Z" fill="white"/>
<path d="M102.497 17.7879H108.751V42.0303H102.497V39.1697C100.622 41.5293 97.9878 42.7091 94.5938 42.7091C91.3615 42.7091 88.5817 41.4808 86.2544 39.0242C83.9595 36.5353 82.812 33.497 82.812 29.9091C82.812 26.3212 83.9595 23.299 86.2544 20.8424C88.5817 18.3535 91.3615 17.1091 94.5938 17.1091C97.9878 17.1091 100.622 18.2889 102.497 20.6485V17.7879ZM90.9575 34.8545C92.2181 36.1151 93.8181 36.7454 95.7575 36.7454C97.6969 36.7454 99.2969 36.1151 100.557 34.8545C101.85 33.5616 102.497 31.9131 102.497 29.9091C102.497 27.905 101.85 26.2727 100.557 25.0121C99.2969 23.7192 97.6969 23.0727 95.7575 23.0727C93.8181 23.0727 92.2181 23.7192 90.9575 25.0121C89.6969 26.2727 89.0666 27.905 89.0666 29.9091C89.0666 31.9131 89.6969 33.5616 90.9575 34.8545ZM128.29 23.8H122.811V33.8848C122.811 34.7253 123.021 35.3394 123.441 35.7273C123.861 36.1151 124.476 36.3414 125.284 36.406C126.091 36.4384 127.094 36.4222 128.29 36.3576V42.0303C123.991 42.5151 120.952 42.1111 119.174 40.8182C117.429 39.5253 116.556 37.2141 116.556 33.8848V23.8H112.338V17.7879H116.556V12.8909L122.811 11V17.7879H128.29V23.8ZM150.366 17.7879H156.62V42.0303H150.366V39.1697C148.491 41.5293 145.857 42.7091 142.463 42.7091C139.231 42.7091 136.451 41.4808 134.124 39.0242C131.829 36.5353 130.681 33.497 130.681 29.9091C130.681 26.3212 131.829 23.299 134.124 20.8424C136.451 18.3535 139.231 17.1091 142.463 17.1091C145.857 17.1091 148.491 18.2889 150.366 20.6485V17.7879ZM138.827 34.8545C140.087 36.1151 141.687 36.7454 143.627 36.7454C145.566 36.7454 147.166 36.1151 148.427 34.8545C149.72 33.5616 150.366 31.9131 150.366 29.9091C150.366 27.905 149.72 26.2727 148.427 25.0121C147.166 23.7192 145.566 23.0727 143.627 23.0727C141.687 23.0727 140.087 23.7192 138.827 25.0121C137.566 26.2727 136.936 27.905 136.936 29.9091C136.936 31.9131 137.566 33.5616 138.827 34.8545ZM174.171 42.7091C170.81 42.7091 167.981 41.9656 165.687 40.4788C163.391 38.9596 161.775 36.9071 160.838 34.3212L166.559 30.9757C167.884 34.4344 170.487 36.1636 174.365 36.1636C176.24 36.1636 177.614 35.8242 178.487 35.1454C179.359 34.4667 179.796 33.6101 179.796 32.5757C179.796 31.3798 179.262 30.4586 178.196 29.8121C177.129 29.1333 175.222 28.406 172.474 27.6303C170.955 27.1777 169.662 26.7253 168.596 26.2727C167.561 25.8202 166.511 25.2222 165.444 24.4788C164.41 23.703 163.617 22.7333 163.068 21.5697C162.519 20.406 162.244 19.0485 162.244 17.497C162.244 14.4262 163.327 11.9859 165.492 10.1757C167.69 8.33332 170.325 7.41211 173.396 7.41211C176.143 7.41211 178.551 8.0909 180.62 9.44847C182.72 10.7737 184.353 12.6323 185.517 15.0242L179.893 18.2727C178.535 15.3636 176.369 13.9091 173.396 13.9091C172.005 13.9091 170.907 14.2323 170.099 14.8788C169.323 15.4929 168.935 16.301 168.935 17.303C168.935 18.3697 169.371 19.2424 170.244 19.9212C171.149 20.5677 172.862 21.2788 175.384 22.0545C176.417 22.3777 177.193 22.6364 177.711 22.8303C178.26 22.9919 178.987 23.2667 179.893 23.6545C180.83 24.0101 181.541 24.3495 182.026 24.6727C182.543 24.9959 183.125 25.4323 183.771 25.9818C184.417 26.5313 184.902 27.097 185.226 27.6788C185.581 28.2606 185.872 28.9717 186.099 29.8121C186.357 30.6202 186.487 31.5091 186.487 32.4788C186.487 35.6141 185.339 38.103 183.044 39.9454C180.781 41.7879 177.824 42.7091 174.171 42.7091ZM203.716 23.8H198.237V33.8848C198.237 34.7253 198.447 35.3394 198.867 35.7273C199.288 36.1151 199.902 36.3414 200.71 36.406C201.518 36.4384 202.52 36.4222 203.716 36.3576V42.0303C199.417 42.5151 196.379 42.1111 194.601 40.8182C192.855 39.5253 191.982 37.2141 191.982 33.8848V23.8H187.764V17.7879H191.982V12.8909L198.237 11V17.7879H203.716V23.8ZM212.653 32.4788C213.493 35.5171 215.772 37.0364 219.49 37.0364C221.881 37.0364 223.691 36.2283 224.92 34.6121L229.962 37.5212C227.57 40.9798 224.047 42.7091 219.393 42.7091C215.384 42.7091 212.168 41.497 209.744 39.0727C207.32 36.6485 206.107 33.5939 206.107 29.9091C206.107 26.2565 207.304 23.2182 209.696 20.7939C212.087 18.3374 215.158 17.1091 218.908 17.1091C222.463 17.1091 225.388 18.3374 227.684 20.7939C230.011 23.2505 231.174 26.2889 231.174 29.9091C231.174 30.7171 231.093 31.5737 230.932 32.4788H212.653ZM212.556 27.6303H224.92C224.564 25.9818 223.82 24.7535 222.69 23.9454C221.59 23.1374 220.33 22.7333 218.908 22.7333C217.227 22.7333 215.837 23.1697 214.738 24.0424C213.639 24.8828 212.911 26.0788 212.556 27.6303ZM249.65 17.1091C252.914 17.1091 255.694 18.3535 257.989 20.8424C260.316 23.299 261.48 26.3212 261.48 29.9091C261.48 33.497 260.316 36.5353 257.989 39.0242C255.694 41.4808 252.914 42.7091 249.65 42.7091C246.256 42.7091 243.637 41.5293 241.795 39.1697V51.7273H235.541V17.7879H241.795V20.6485C243.637 18.2889 246.256 17.1091 249.65 17.1091ZM243.686 34.8545C244.947 36.1151 246.547 36.7454 248.486 36.7454C250.425 36.7454 252.025 36.1151 253.286 34.8545C254.579 33.5616 255.225 31.9131 255.225 29.9091C255.225 27.905 254.579 26.2727 253.286 25.0121C252.025 23.7192 250.425 23.0727 248.486 23.0727C246.547 23.0727 244.947 23.7192 243.686 25.0121C242.425 26.2727 241.795 27.905 241.795 29.9091C241.795 31.9131 242.425 33.5616 243.686 34.8545Z" fill="white"/>
</svg>
