<svg width="150" height="150" viewBox="0 0 150 150" fill="none" xmlns="http://www.w3.org/2000/svg">
<path d="M74.9997 149.333C116.237 149.333 149.666 115.904 149.666 74.6667C149.666 33.4293 116.237 0 74.9997 0C33.7623 0 0.333008 33.4293 0.333008 74.6667C0.333008 115.904 33.7623 149.333 74.9997 149.333Z" fill="#805AD5"/>
<path d="M69.0353 80.6095V69.8071H25.8252V80.6095H69.0353Z" fill="white"/>
<path d="M69.0223 64.4075C65.3223 64.4075 61.7308 63.9424 58.3039 63.0661C58.2737 63.06 58.2468 63.0512 58.2199 63.0451C54.646 62.124 51.2492 60.7587 48.0985 59.0123V59.0093C47.8705 58.8832 47.6423 58.7541 47.4172 58.6251C44.9239 57.1816 42.5895 55.4984 40.4468 53.6048C39.9457 53.1669 39.4567 52.7139 38.9764 52.2456C38.1543 51.4565 37.3681 50.6312 36.6151 49.7731C34.7215 47.6304 33.038 45.296 31.5948 42.8027C29.6593 39.4597 28.162 35.8349 27.1748 32H38.4604C38.6225 32.4592 38.7932 32.9123 38.9764 33.3595C40.3897 36.852 42.3943 40.0419 44.8668 42.8027C45.6679 43.6997 46.5201 44.552 47.4172 45.3531C49.2177 46.9645 51.2012 48.3779 53.3319 49.5568C54.886 50.4211 56.5215 51.1595 58.2199 51.7595C61.5985 52.9539 65.2353 53.6048 69.0223 53.6048V64.4075Z" fill="white"/>
<path d="M69.034 86.0117C65.3343 86.0117 61.7423 86.4768 58.3156 87.3531C58.2855 87.3589 58.2585 87.368 58.2316 87.3739C54.6577 88.2952 51.2609 89.6603 48.1103 91.4069V91.4099C47.882 91.536 47.654 91.6648 47.4289 91.7939C44.9356 93.2373 42.6009 94.9208 40.4585 96.8141C39.9575 97.2523 39.4681 97.7053 38.9881 98.1733C38.166 98.9627 37.3796 99.7877 36.6265 100.646C34.7332 102.789 33.0497 105.123 31.6065 107.617C29.6711 110.959 28.1737 114.584 27.1865 118.419H38.4719C38.634 117.96 38.8052 117.507 38.9881 117.06C40.4015 113.567 42.4057 110.377 44.8785 107.617C45.6796 106.719 46.5319 105.867 47.4289 105.066C49.2295 103.455 51.2129 102.041 53.3433 100.862C54.8977 99.9979 56.5332 99.2597 58.2316 98.6597C61.6103 97.4651 65.2473 96.8141 69.034 96.8141V86.0117Z" fill="white"/>
<path d="M94.2274 35.3687C104.551 35.3687 113.154 38.9596 120.036 46.142C126.99 53.3241 130.466 62.1775 130.466 72.702C130.466 83.2263 126.99 92.0796 120.036 99.262C113.154 106.444 104.551 110.035 94.2274 110.035H64.333V35.3687H94.2274ZM94.2274 95.9553C100.751 95.9553 106.056 93.822 110.143 89.5553C114.229 85.2174 116.272 79.5996 116.272 72.702C116.272 65.8041 114.229 60.222 110.143 55.9553C106.056 51.6175 100.751 49.4487 94.2274 49.4487H79.1727V95.9553H94.2274Z" fill="white"/>
</svg>
