<svg width="634" height="150" viewBox="0 0 634 150" fill="none" xmlns="http://www.w3.org/2000/svg">
<path d="M74.6667 149.333C115.904 149.333 149.333 115.904 149.333 74.6667C149.333 33.4293 115.904 0 74.6667 0C33.4293 0 0 33.4293 0 74.6667C0 115.904 33.4293 149.333 74.6667 149.333Z" fill="#805AD5"/>
<path d="M68.7023 80.6095V69.8071H25.4922V80.6095H68.7023Z" fill="white"/>
<path d="M68.6893 64.4075C64.9893 64.4075 61.3978 63.9424 57.9709 63.0661C57.9407 63.06 57.9138 63.0512 57.8869 63.0451C54.313 62.124 50.9162 60.7587 47.7655 59.0123V59.0093C47.5375 58.8832 47.3093 58.7541 47.0842 58.6251C44.5909 57.1816 42.2565 55.4984 40.1138 53.6048C39.6127 53.1669 39.1237 52.7139 38.6434 52.2456C37.8213 51.4565 37.0351 50.6312 36.2821 49.7731C34.3885 47.6304 32.705 45.296 31.2618 42.8027C29.3263 39.4597 27.829 35.8349 26.8418 32H38.1274C38.2895 32.4592 38.4602 32.9123 38.6434 33.3595C40.0567 36.852 42.0613 40.0419 44.5338 42.8027C45.3349 43.6997 46.1871 44.552 47.0842 45.3531C48.8847 46.9645 50.8682 48.3779 52.9989 49.5568C54.553 50.4211 56.1885 51.1595 57.8869 51.7595C61.2655 52.9539 64.9023 53.6048 68.6893 53.6048V64.4075Z" fill="white"/>
<path d="M68.701 86.0117C65.0013 86.0117 61.4093 86.4768 57.9826 87.3531C57.9525 87.3589 57.9255 87.368 57.8986 87.3739C54.3247 88.2952 50.9279 89.6603 47.7773 91.4069V91.4099C47.549 91.536 47.321 91.6648 47.0959 91.7939C44.6026 93.2373 42.2679 94.9208 40.1255 96.8141C39.6245 97.2523 39.1351 97.7053 38.6551 98.1733C37.833 98.9627 37.0466 99.7877 36.2935 100.646C34.4002 102.789 32.7167 105.123 31.2735 107.617C29.3381 110.959 27.8407 114.584 26.8535 118.419H38.1389C38.301 117.96 38.4722 117.507 38.6551 117.06C40.0685 113.567 42.0727 110.377 44.5455 107.617C45.3466 106.719 46.1989 105.867 47.0959 105.066C48.8965 103.455 50.8799 102.041 53.0103 100.862C54.5647 99.9979 56.2002 99.2597 57.8986 98.6597C61.2773 97.4651 64.9143 96.8141 68.701 96.8141V86.0117Z" fill="white"/>
<path d="M93.8944 35.3687C104.218 35.3687 112.821 38.9596 119.703 46.142C126.657 53.3241 130.133 62.1775 130.133 72.702C130.133 83.2263 126.657 92.0796 119.703 99.262C112.821 106.444 104.218 110.035 93.8944 110.035H64V35.3687H93.8944ZM93.8944 95.9553C100.418 95.9553 105.723 93.822 109.81 89.5553C113.896 85.2174 115.939 79.5996 115.939 72.702C115.939 65.8041 113.896 60.222 109.81 55.9553C105.723 51.6175 100.418 49.4487 93.8944 49.4487H78.8397V95.9553H93.8944Z" fill="white"/>
<path d="M209.827 49.002H226.505V113.648H209.827V106.02C204.828 112.312 197.803 115.459 188.752 115.459C180.133 115.459 172.72 112.183 166.514 105.632C160.394 98.9951 157.334 90.8927 157.334 81.3252C157.334 71.7575 160.394 63.698 166.514 57.1474C172.72 50.5103 180.133 47.1919 188.752 47.1919C197.803 47.1919 204.828 50.3381 209.827 56.6303V49.002ZM179.055 94.513C182.417 97.8746 186.684 99.5554 191.855 99.5554C197.027 99.5554 201.293 97.8746 204.655 94.513C208.102 91.0653 209.827 86.6692 209.827 81.3252C209.827 75.981 208.102 71.6282 204.655 68.2666C201.293 64.8189 197.027 63.0949 191.855 63.0949C186.684 63.0949 182.417 64.8189 179.055 68.2666C175.694 71.6282 174.013 75.981 174.013 81.3252C174.013 86.6692 175.694 91.0653 179.055 94.513ZM278.609 65.0343H263.998V91.9271C263.998 94.1684 264.558 95.806 265.678 96.8404C266.798 97.8746 268.438 98.478 270.593 98.6503C272.745 98.7364 275.419 98.6935 278.609 98.5212V113.648C267.145 114.941 259.041 113.864 254.299 110.416C249.646 106.968 247.318 100.805 247.318 91.9271V65.0343H236.07V49.002H247.318V35.9434L263.998 30.901V49.002H278.609V65.0343ZM337.478 49.002H354.155V113.648H337.478V106.02C332.478 112.312 325.454 115.459 316.403 115.459C307.785 115.459 300.371 112.183 294.166 105.632C288.046 98.9951 284.985 90.8927 284.985 81.3252C284.985 71.7575 288.046 63.698 294.166 57.1474C300.371 50.5103 307.785 47.1919 316.403 47.1919C325.454 47.1919 332.478 50.3381 337.478 56.6303V49.002ZM306.707 94.513C310.067 97.8746 314.334 99.5554 319.507 99.5554C324.678 99.5554 328.945 97.8746 332.307 94.513C335.755 91.0653 337.478 86.6692 337.478 81.3252C337.478 75.981 335.755 71.6282 332.307 68.2666C328.945 64.8189 324.678 63.0949 319.507 63.0949C314.334 63.0949 310.067 64.8189 306.707 68.2666C303.345 71.6282 301.665 75.981 301.665 81.3252C301.665 86.6692 303.345 91.0653 306.707 94.513ZM400.958 115.459C391.995 115.459 384.451 113.476 378.334 109.511C372.211 105.46 367.902 99.9866 365.403 93.0908L380.659 84.1695C384.193 93.3924 391.134 98.0039 401.475 98.0039C406.475 98.0039 410.139 97.0988 412.467 95.2887C414.793 93.4786 415.958 91.1946 415.958 88.4362C415.958 85.2471 414.534 82.7906 411.691 81.0666C408.846 79.2564 403.761 77.317 396.433 75.2485C392.382 74.0415 388.934 72.8351 386.091 71.6282C383.331 70.4215 380.531 68.8268 377.686 66.8444C374.929 64.7756 372.814 62.1898 371.35 59.0869C369.886 55.9837 369.153 52.3637 369.153 48.2261C369.153 40.0375 372.041 33.5301 377.814 28.7029C383.675 23.7898 390.702 21.3333 398.891 21.3333C406.217 21.3333 412.638 23.1434 418.155 26.7637C423.755 30.2975 428.11 35.2538 431.214 41.6322L416.217 50.2948C412.595 42.5372 406.819 38.6586 398.891 38.6586C395.182 38.6586 392.254 39.5204 390.099 41.2444C388.03 42.882 386.995 45.037 386.995 47.709C386.995 50.5535 388.158 52.8807 390.486 54.6908C392.899 56.4148 397.467 58.3111 404.193 60.3797C406.947 61.2415 409.017 61.9311 410.398 62.4484C411.862 62.8794 413.801 63.6119 416.217 64.6463C418.715 65.5946 420.611 66.4996 421.905 67.3615C423.283 68.2234 424.835 69.3871 426.558 70.8524C428.281 72.3178 429.574 73.8261 430.438 75.3778C431.385 76.9293 432.161 78.8255 432.766 81.0666C433.454 83.2215 433.801 85.5919 433.801 88.1778C433.801 96.5386 430.739 103.176 424.619 108.089C418.585 113.002 410.699 115.459 400.958 115.459ZM479.745 65.0343H465.134V91.9271C465.134 94.1684 465.694 95.806 466.814 96.8404C467.937 97.8746 469.574 98.478 471.729 98.6503C473.883 98.7364 476.555 98.6935 479.745 98.5212V113.648C468.281 114.941 460.179 113.864 455.435 110.416C450.782 106.968 448.454 100.805 448.454 91.9271V65.0343H437.206V49.002H448.454V35.9434L465.134 30.901V49.002H479.745V65.0343ZM503.577 88.1778C505.817 96.2799 511.894 100.331 521.809 100.331C528.185 100.331 533.011 98.1764 536.289 93.8666L549.734 101.624C543.355 110.847 533.961 115.459 521.55 115.459C510.859 115.459 502.283 112.226 495.819 105.762C489.355 99.297 486.121 91.1514 486.121 81.3252C486.121 71.585 489.313 63.4828 495.691 57.018C502.067 50.4674 510.257 47.1919 520.257 47.1919C529.737 47.1919 537.537 50.4674 543.659 57.018C549.865 63.569 552.966 71.6714 552.966 81.3252C552.966 83.4799 552.75 85.7642 552.321 88.1778H503.577ZM503.318 75.2485H536.289C535.339 70.8525 533.355 67.577 530.342 65.4221C527.409 63.2674 524.049 62.1898 520.257 62.1898C515.774 62.1898 512.067 63.3535 509.137 65.6807C506.206 67.9218 504.265 71.1111 503.318 75.2485ZM602.235 47.1919C610.939 47.1919 618.353 50.5103 624.473 57.1474C630.678 63.698 633.782 71.7575 633.782 81.3252C633.782 90.8927 630.678 98.9951 624.473 105.632C618.353 112.183 610.939 115.459 602.235 115.459C593.185 115.459 586.201 112.312 581.289 106.02V139.507H564.609V49.002H581.289V56.6303C586.201 50.3381 593.185 47.1919 602.235 47.1919ZM586.331 94.513C589.694 97.8746 593.961 99.5554 599.131 99.5554C604.302 99.5554 608.569 97.8746 611.931 94.513C615.379 91.0653 617.102 86.6692 617.102 81.3252C617.102 75.981 615.379 71.6282 611.931 68.2666C608.569 64.8189 604.302 63.0949 599.131 63.0949C593.961 63.0949 589.694 64.8189 586.331 68.2666C582.969 71.6282 581.289 75.981 581.289 81.3252C581.289 86.6692 582.969 91.0653 586.331 94.513Z" fill="#805AD5"/>
</svg>
